<svg viewBox="0 0 1024 1024">
    <path d="M262.4 262.4l115.2 0 0 115.2-115.2 0 0-115.2Z"></path>
    <path d="M262.4 646.4l115.2 0 0 115.2-115.2 0 0-115.2Z"></path>
    <path d="M646.4 262.4l115.2 0 0 115.2-115.2 0 0-115.2Z"></path>
    <path d="M806.4 806.4l-115.2 0 0 57.6 115.2 0c32 0 57.6-25.6 57.6-57.6l0-57.6-57.6 0L806.4 806.4z"></path>
    <path d="M160 217.6l0 262.4 320 0 0-320L217.6 160C185.6 160 160 185.6 160 217.6zM422.4 422.4 217.6 422.4 217.6 217.6l204.8 0L422.4 422.4z" p-id="2905"></path><path d="M160 806.4c0 32 25.6 57.6 57.6 57.6l262.4 0 0-320-320 0L160 806.4zM217.6 601.6l204.8 0 0 204.8L217.6 806.4 217.6 601.6z" p-id="2906"></path><path d="M544 544l204.8 0 0 57.6-204.8 0 0-57.6Z" p-id="2907"></path><path d="M691.2 627.2 627.2 627.2 627.2 691.2 691.2 691.2 691.2 748.8 748.8 748.8 748.8 691.2 864 691.2 864 627.2 748.8 627.2Z" p-id="2908"></path><path d="M544 748.8l57.6 0 0 115.2-57.6 0 0-115.2Z" p-id="2909"></path><path d="M627.2 748.8l57.6 0 0 57.6-57.6 0 0-57.6Z" p-id="2910"></path><path d="M544 627.2l57.6 0 0 57.6-57.6 0 0-57.6Z" p-id="2911"></path><path d="M806.4 544l57.6 0 0 57.6-57.6 0 0-57.6Z" p-id="2912"></path><path d="M806.4 160 544 160l0 320 320 0L864 217.6C864 185.6 838.4 160 806.4 160zM806.4 422.4 601.6 422.4 601.6 217.6l204.8 0L806.4 422.4z"></path>
</svg>